<svg xmlns="http://www.w3.org/2000/svg" viewBox="0 0 80 80">
  <rect width="80" height="80" rx="16" fill="#1C3A24"/>
  <g transform="translate(4, 4) scale(0.9)">
    <line x1="38" y1="38" x2="16" y2="18" stroke="#4E8C5F" stroke-width="2" stroke-linecap="round"/>
    <line x1="42" y1="36" x2="62" y2="16" stroke="#4E8C5F" stroke-width="2" stroke-linecap="round"/>
    <line x1="44" y1="40" x2="66" y2="44" stroke="#7AB88A" stroke-width="1.5" stroke-linecap="round"/>
    <line x1="40" y1="44" x2="32" y2="64" stroke="#7AB88A" stroke-width="1.5" stroke-linecap="round"/>
    <line x1="36" y1="42" x2="14" y2="58" stroke="#C6DFC8" stroke-width="1.2" stroke-linecap="round"/>
    <line x1="16" y1="18" x2="6" y2="10" stroke="#C6DFC8" stroke-width="1" stroke-linecap="round"/>
    <line x1="16" y1="18" x2="18" y2="6" stroke="#C6DFC8" stroke-width="1" stroke-linecap="round"/>
    <line x1="62" y1="16" x2="72" y2="8" stroke="#C6DFC8" stroke-width="1" stroke-linecap="round"/>
    <circle cx="16" cy="18" r="6" fill="#4E8C5F"/>
    <circle cx="62" cy="16" r="5" fill="#4E8C5F"/>
    <circle cx="66" cy="44" r="4" fill="#7AB88A"/>
    <circle cx="32" cy="64" r="4" fill="#7AB88A"/>
    <circle cx="14" cy="58" r="3" fill="#C6DFC8"/>
    <circle cx="6"  cy="10" r="2" fill="#C6DFC8"/>
    <circle cx="18" cy="6"  r="2" fill="#C6DFC8"/>
    <circle cx="72" cy="8"  r="2" fill="#C6DFC8"/>
    <circle cx="40" cy="40" r="8"   fill="#1C3A24"/>
    <circle cx="40" cy="40" r="4.5" fill="#4E8C5F"/>
  </g>
</svg>
